<?xml version="1.0" encoding="UTF-8" standalone="no"?>
<svg width="400px" height="200px" viewBox="0 0 400 200" version="1.1" xmlns="http://www.w3.org/2000/svg" xmlns:xlink="http://www.w3.org/1999/xlink" xmlns:sketch="http://www.bohemiancoding.com/sketch/ns">
    <!-- Generator: Sketch 3.3.3 (12081) - http://www.bohemiancoding.com/sketch -->
    <title>Group</title>
    <desc>Created with Sketch.</desc>
    <defs></defs>
    <g id="Page-1" stroke="none" stroke-width="1" fill="none" fill-rule="evenodd" sketch:type="MSPage">
        <g id="Group" sketch:type="MSLayerGroup">
            <path d="M0,0 L17.4457645,0 L40.3226154,0 L361.509917,0 L384.262977,0 L400,0 L400,200 L0,200 L0,0 Z" id="Rectangle-1" fill="#BCBCBC" sketch:type="MSShapeGroup"></path>
            <rect id="Rectangle-3" fill="#787878" sketch:type="MSShapeGroup" x="64.4628099" y="0" width="85.399449" height="55.4181866"></rect>
            <rect id="Rectangle-3-Copy-2" fill="#787878" sketch:type="MSShapeGroup" x="64.4628099" y="62.1512373" width="85.399449" height="8.80475862"></rect>
            <rect id="Rectangle-3-Copy-3" fill="#787878" sketch:type="MSShapeGroup" x="64.4628099" y="77.6890466" width="85.399449" height="8.80475862"></rect>
            <rect id="Rectangle-3-Copy-4" fill="#787878" sketch:type="MSShapeGroup" x="64.4628099" y="93.226856" width="85.399449" height="8.80475862"></rect>
            <rect id="Rectangle-3-Copy-5" fill="#787878" sketch:type="MSShapeGroup" x="64.4628099" y="108.764665" width="85.399449" height="8.80475862"></rect>
            <rect id="Rectangle-3-Copy-6" fill="#787878" sketch:type="MSShapeGroup" x="64.4628099" y="124.302475" width="85.399449" height="8.80475862"></rect>
            <rect id="Rectangle-3-Copy-7" fill="#787878" sketch:type="MSShapeGroup" x="64.4628099" y="139.840284" width="85.399449" height="8.80475862"></rect>
            <rect id="Rectangle-3-Copy-8" fill="#787878" sketch:type="MSShapeGroup" x="64.4628099" y="155.378093" width="85.399449" height="8.80475862"></rect>
            <rect id="Rectangle-3-Copy-9" fill="#787878" sketch:type="MSShapeGroup" x="64.4628099" y="170.915903" width="85.399449" height="8.80475862"></rect>
            <rect id="Rectangle-3-Copy-10" fill="#787878" sketch:type="MSShapeGroup" x="64.4628099" y="186.453712" width="85.399449" height="8.80475862"></rect>
            <path d="M346.556474,0 L346.556474,176.913634 C346.556474,178.618187 344.312238,180 341.560644,180 L164.775444,180 C162.016324,180 159.779614,178.616236 159.779614,176.913634 L159.779614,0 L346.556474,0 Z" id="Rectangle-3-Copy" fill="#787878" sketch:type="MSShapeGroup"></path>
        </g>
    </g>
</svg>