<?xml version="1.0" encoding="UTF-8" standalone="no"?>
<svg width="160px" height="170px" viewBox="0 0 160 170" version="1.1" xmlns="http://www.w3.org/2000/svg" xmlns:xlink="http://www.w3.org/1999/xlink" xmlns:sketch="http://www.bohemiancoding.com/sketch/ns">
    <!-- Generator: Sketch 3.3.3 (12081) - http://www.bohemiancoding.com/sketch -->
    <title>Rectangle 71 Copy 509</title>
    <desc>Created with Sketch.</desc>
    <defs></defs>
    <g id="Page-1" stroke="none" stroke-width="1" fill="none" fill-rule="evenodd" sketch:type="MSPage">
        <path d="M100,140 L90,140 L90,130 L100,130 L100,140 Z M110,130 L100,130 L100,120 L110,120 L110,130 Z M90,150 L80,150 L80,140 L90,140 L90,150 Z M80,160 L70,160 L70,150 L80,150 L80,160 Z M60,160 L70,160 L70,170 L60,170 L60,160 Z M50,150 L60,150 L60,160 L50,160 L50,150 Z M40,140 L50,140 L50,150 L40,150 L40,140 Z M30,130 L40,130 L40,140 L30,140 L30,130 Z M20,120 L30,120 L30,130 L20,130 L20,120 Z M10,110 L20,110 L20,120 L10,120 L10,110 Z M0,100 L10,100 L10,110 L0,110 L0,100 Z M10,90 L20,90 L20,100 L10,100 L10,90 Z M20,80 L30,80 L30,90 L20,90 L20,80 Z M30,70 L40,70 L40,80 L30,80 L30,70 Z M40,60 L50,60 L50,70 L40,70 L40,60 Z M50,50 L60,50 L60,60 L50,60 L50,50 Z M80,20 L90,20 L90,30 L80,30 L80,20 Z M120,100 L130,100 L130,110 L120,110 L120,100 Z M110,110 L120,110 L120,120 L110,120 L110,110 Z M90,80 L100,80 L100,90 L90,90 L90,80 Z M80,50 L90,50 L90,60 L80,60 L80,50 Z M80,60 L90,60 L90,70 L80,70 L80,60 Z M80,70 L90,70 L90,80 L80,80 L80,70 Z M50,0 L60,0 L60,10 L50,10 L50,0 Z M60,0 L70,0 L70,10 L60,10 L60,0 Z M40,10 L50,10 L50,20 L40,20 L40,10 Z M40,20 L50,20 L50,30 L40,30 L40,20 Z M40,30 L50,30 L50,40 L40,40 L40,30 Z M40,40 L50,40 L50,50 L40,50 L40,40 Z M40,50 L50,50 L50,60 L40,60 L40,50 Z M70,0 L80,0 L80,10 L70,10 L70,0 Z M70,80 L80,80 L80,90 L70,90 L70,80 Z M80,90 L90,90 L90,100 L80,100 L80,90 Z M60,40 L70,40 L70,50 L60,50 L60,40 Z M70,30 L80,30 L80,40 L70,40 L70,30 Z M80,40 L90,40 L90,50 L80,50 L80,40 Z M90,50 L100,50 L100,60 L90,60 L90,50 Z M100,60 L110,60 L110,70 L100,70 L100,60 Z M110,70 L120,70 L120,80 L110,80 L110,70 Z M130,90 L140,90 L140,100 L130,100 L130,90 Z M130,80 L140,80 L140,90 L130,90 L130,80 Z M120,70 L130,70 L130,80 L120,80 L120,70 Z M110,60 L120,60 L120,70 L110,70 L110,60 Z M130,70 L140,70 L140,80 L130,80 L130,70 Z M120,60 L130,60 L130,70 L120,70 L120,60 Z M140,80 L150,80 L150,90 L140,90 L140,80 Z M140,90 L150,90 L150,100 L140,100 L140,90 Z M130,100 L140,100 L140,110 L130,110 L130,100 Z M140,110 L150,110 L150,120 L140,120 L140,110 Z M130,120 L140,120 L140,130 L130,130 L130,120 Z M130,110 L140,110 L140,120 L130,120 L130,110 Z M140,100 L150,100 L150,110 L140,110 L140,100 Z M140,120 L150,120 L150,130 L140,130 L140,120 Z M140,130 L150,130 L150,140 L140,140 L140,130 Z M130,140 L140,140 L140,150 L130,150 L130,140 Z M130,130 L140,130 L140,140 L130,140 L130,130 Z M150,120 L160,120 L160,130 L150,130 L150,120 Z M150,110 L160,110 L160,120 L150,120 L150,110 Z M150,100 L160,100 L160,110 L150,110 L150,100 Z M150,90 L160,90 L160,100 L150,100 L150,90 Z M120,80 L130,80 L130,90 L120,90 L120,80 Z M80,30 L90,30 L90,40 L80,40 L80,30 Z M80,10 L90,10 L90,20 L80,20 L80,10 Z" id="Rectangle-71-Copy-509" fill="#000000" sketch:type="MSShapeGroup"></path>
    </g>
</svg>