<?xml version="1.0" encoding="UTF-8" standalone="no"?>
<svg class="icon" width="90px" height="57px" viewBox="0 0 90 57" version="1.1" xmlns="http://www.w3.org/2000/svg" xmlns:xlink="http://www.w3.org/1999/xlink">
    <!-- Generator: Sketch 3.8.3 (29802) - http://www.bohemiancoding.com/sketch -->
    <title>Group Copy</title>
    <desc>Created with Sketch.</desc>
    <defs>
        <rect id="path-1" x="-6100" y="-226" width="6571" height="1400"></rect>
        <mask id="mask-2" maskContentUnits="userSpaceOnUse" maskUnits="objectBoundingBox" x="0" y="0" width="6571" height="1400" fill="white">
            <use xlink:href="#path-1"></use>
        </mask>
        <rect id="path-3" x="-188" y="-88" width="466" height="853"></rect>
        <filter x="-50%" y="-50%" width="200%" height="200%" filterUnits="objectBoundingBox" id="filter-4">
            <feOffset dx="0" dy="2" in="SourceAlpha" result="shadowOffsetOuter1"></feOffset>
            <feGaussianBlur stdDeviation="1" in="shadowOffsetOuter1" result="shadowBlurOuter1"></feGaussianBlur>
            <feColorMatrix values="0 0 0 0 0   0 0 0 0 0   0 0 0 0 0  0 0 0 0.5 0" type="matrix" in="shadowBlurOuter1"></feColorMatrix>
        </filter>
        <circle id="path-5" cx="25" cy="25" r="25"></circle>
        <mask id="mask-6" maskContentUnits="userSpaceOnUse" maskUnits="objectBoundingBox" x="-3" y="-3" width="56" height="56">
            <rect x="-3" y="-3" width="56" height="56" fill="white"></rect>
            <use xlink:href="#path-5" fill="black"></use>
        </mask>
        <circle id="path-7" cx="59" cy="25" r="25"></circle>
        <mask id="mask-8" maskContentUnits="userSpaceOnUse" maskUnits="objectBoundingBox" x="-2.5" y="-2.5" width="55" height="55">
            <rect x="31.5" y="-2.5" width="55" height="55" fill="white"></rect>
            <use xlink:href="#path-7" fill="black"></use>
        </mask>
    </defs>
    <g id="Page-1" stroke="none" stroke-width="1" fill="none" fill-rule="evenodd">
        <use id="Rectangle-4" stroke="#979797" mask="url(#mask-2)" stroke-width="2" fill="#EBEBEB" xlink:href="#path-1"></use>
        <g id="Rectangle-12-Copy-2">
            <use fill="black" fill-opacity="1" filter="url(#filter-4)" xlink:href="#path-3"></use>
            <use fill="#FFFFFF" fill-rule="evenodd" xlink:href="#path-3"></use>
        </g>
        <g id="Group-Copy" transform="translate(3.000000, 3.500000)">
            <path d="M24.976,17.572 L23.7,17.77 C23.4946656,17.7993335 23.362667,17.8726661 23.304,17.99 C23.245333,18.1073339 23.216,18.3053319 23.216,18.584 L23.216,27.692 C23.216,28.7040051 23.117001,29.6536622 22.919,30.541 C22.720999,31.4283378 22.4386685,32.1799969 22.072,32.796 C21.8959991,33.0893348 21.6576682,33.3789986 21.357,33.665 C21.0563318,33.9510014 20.7190019,34.2113322 20.345,34.446 C19.9709981,34.6806678 19.5786687,34.867666 19.168,35.007 C18.7573313,35.146334 18.3466687,35.216 17.936,35.216 C17.7306656,35.216 17.5143345,35.2050001 17.287,35.183 C17.0596655,35.1609999 16.8506676,35.1170003 16.66,35.051 C16.4693324,34.9849997 16.3116673,34.882334 16.187,34.743 C16.0623327,34.603666 16,34.4166678 16,34.182 C16,33.9326654 16.0916658,33.7016677 16.275,33.489 C16.4583343,33.2763323 16.6819987,33.17 16.946,33.17 C17.1953346,33.17 17.4336655,33.2359993 17.661,33.368 C17.8883345,33.5000007 18.1486652,33.6759989 18.442,33.896 C18.6620011,34.0573341 18.8929988,34.0793339 19.135,33.962 C19.3770012,33.8446661 19.5493328,33.7053341 19.652,33.544 C19.8426676,33.2506652 19.9893328,33.0013344 20.092,32.796 C20.1946672,32.5906656 20.2679998,32.3046685 20.312,31.938 C20.3560002,31.5713315 20.3816666,31.0726698 20.389,30.442 C20.3963334,29.8113302 20.4,28.9240057 20.4,27.78 L20.4,18.518 C20.4,18.3566659 20.3926667,18.2283338 20.378,18.133 C20.3633333,18.0376662 20.326667,17.9643336 20.268,17.913 C20.209333,17.8616664 20.1176673,17.8213335 19.993,17.792 C19.8683327,17.7626665 19.6886678,17.7333335 19.454,17.704 L18.596,17.572 L18.596,17 C18.6840004,17.0146667 18.856332,17.0256666 19.113,17.033 C19.3696679,17.0403334 19.666665,17.0476666 20.004,17.055 C20.341335,17.0623334 20.7006648,17.066 21.082,17.066 L22.204,17.066 C23.670674,17.066 24.5946648,17.0440002 24.976,17 L24.976,17.572 Z" id="J" fill="#181818"></path>
            <path d="M61.016,25.8 L59.344,30.09 C59.2706663,30.3246678 59.2559998,30.4969994 59.3,30.607 C59.3440002,30.7170005 59.563998,30.7866665 59.96,30.816 L61.412,30.926 L61.412,31.564 C61.2653326,31.5493333 60.9683356,31.5383334 60.521,31.531 C60.0736644,31.5236666 59.4686705,31.52 58.706,31.52 C57.9433295,31.52 57.3383356,31.5236666 56.891,31.531 C56.4436644,31.5383334 56.1466674,31.5493333 56,31.564 L56,30.926 L57.386,30.816 C57.8700024,30.7719998 58.2073324,30.5006692 58.398,30.002 L63.546,17 L64.624,17 L69.486,29.848 C69.5886672,30.0973346 69.6839996,30.2659996 69.772,30.354 C69.8600004,30.4420004 70.0213322,30.5226663 70.256,30.596 L71.466,30.97 L71.466,31.586 C71.2459989,31.5713333 70.8940024,31.5566667 70.41,31.542 C69.9259976,31.5273333 69.4200026,31.52 68.892,31.52 L67.044,31.52 C65.8706608,31.52 64.9100037,31.5419998 64.162,31.586 L64.162,30.97 L65.548,30.75 C65.9733355,30.6766663 66.215333,30.5886672 66.274,30.486 C66.332667,30.3833328 66.3033339,30.1853348 66.186,29.892 L64.668,25.8 L61.016,25.8 Z M64.294,24.788 L62.996,20.674 L61.412,24.788 L64.294,24.788 Z" id="A" fill="#181818"></path>
            <g id="Oval-1">
                <use stroke="#000000" stroke-width="4" xlink:href="#path-5"></use>
                <use stroke="#FFFFFF" mask="url(#mask-6)" stroke-width="6" xlink:href="#path-5"></use>
            </g>
            <g id="Oval-1-Copy">
                <use stroke="#000000" stroke-width="4" xlink:href="#path-7"></use>
                <use stroke="#FFFFFF" mask="url(#mask-8)" stroke-width="5" xlink:href="#path-7"></use>
            </g>
            <circle id="Oval-1-Copy-2" stroke="#FFFFFF" stroke-width="2" cx="59" cy="25" r="22"></circle>
        </g>
    </g>
</svg>