<svg xmlns="http://www.w3.org/2000/svg" xmlns:xlink="http://www.w3.org/1999/xlink" version="1.1" x="0px" y="0px" viewBox="0 0 100 100" enable-background="new 0 0 100 100" xml:space="preserve"><path d="M26.438,73.562c-2.958-2.938-2.958-2.938-5.896,0l-5.896,5.896c-2.938,2.958-2.938,2.958,0,5.896s2.938,2.938,5.896,0  l5.896-5.896C29.375,76.521,29.375,76.521,26.438,73.562z M85.354,14.646c-2.938-2.938-2.938-2.938-5.896,0l-5.896,5.896  c-2.938,2.938-2.938,2.938,0,5.896c2.958,2.938,2.958,2.938,5.896,0l5.896-5.896C88.292,17.583,88.292,17.583,85.354,14.646z   M73.562,73.562c-2.938,2.958-2.938,2.958,0,5.896l5.896,5.896c2.958,2.938,2.958,2.938,5.896,0s2.938-2.938,0-5.896l-5.896-5.896  C76.521,70.625,76.521,70.625,73.562,73.562z M14.646,14.646c-2.938,2.938-2.938,2.938,0,5.896l5.896,5.896  c2.938,2.938,2.938,2.938,5.896,0c2.938-2.958,2.938-2.958,0-5.896l-5.896-5.896C17.583,11.708,17.583,11.708,14.646,14.646z   M50,83.333c-4.167,0-4.167,0-4.167,4.167v8.333c0,4.167,0,4.167,4.167,4.167s4.167,0,4.167-4.167V87.5  C54.167,83.333,54.167,83.333,50,83.333z M50,0c-4.167,0-4.167,0-4.167,4.167V12.5c0,4.167,0,4.167,4.167,4.167s4.167,0,4.167-4.167  V4.167C54.167,0,54.167,0,50,0z M83.333,50c0,4.167,0,4.167,4.167,4.167h8.333c4.167,0,4.167,0,4.167-4.167s0-4.167-4.167-4.167  H87.5C83.333,45.833,83.333,45.833,83.333,50z M0,50c0,4.167,0,4.167,4.167,4.167H12.5c4.167,0,4.167,0,4.167-4.167  s0-4.167-4.167-4.167H4.167C0,45.833,0,45.833,0,50z M50,66.667c-9.205,0-16.667-7.462-16.667-16.667S40.795,33.333,50,33.333  S66.667,40.795,66.667,50S59.205,66.667,50,66.667z M50,75c13.807,0,25-11.193,25-25S63.807,25,50,25S25,36.193,25,50  S36.193,75,50,75z"></path></svg>